<svg width="22" height="22" viewBox="0 0 22 22" fill="none" xmlns="http://www.w3.org/2000/svg">
<path d="M14.0104 21.8324C13.472 21.189 12.6789 20.5692 11.9015 20.1831C10.5437 19.5081 9.03098 19.3086 7.26875 19.5659C7.07441 19.5948 6.91158 19.6158 6.90633 19.6079C6.90107 19.6027 7.00875 19.516 7.14269 19.4136C8.16694 18.6441 8.9732 17.7748 9.34351 17.0421C9.48533 16.7584 9.64028 16.2883 9.6928 15.9942C9.71644 15.8576 9.75321 15.4978 9.77422 15.1932C9.82937 14.4447 9.87927 14.0822 9.97119 13.7224C10.0158 13.5543 10.05 13.3836 10.05 13.3469C10.05 13.3075 10.0053 13.1998 9.9528 13.1052C9.8425 12.9214 9.593 12.6614 8.553 11.6608C7.67582 10.8151 7.29764 10.3634 6.83017 9.59127C6.73037 9.42844 6.50188 9.10278 6.31804 8.86642C5.79279 8.18358 5.62471 7.89731 5.48289 7.45084C5.36471 7.08316 5.36996 7.05953 5.53541 7.20135C5.76915 7.39832 5.96087 7.54014 6.09481 7.60842C6.2235 7.67408 6.2235 7.67408 6.20249 7.52175C6.17622 7.31428 6.05016 6.80215 5.96612 6.56841C5.92673 6.46073 5.80855 6.1876 5.70087 5.95911C5.49602 5.52052 5.42511 5.32355 5.36208 5.0294C5.32269 4.84294 5.30693 4.33081 5.34107 4.29929C5.34895 4.28879 5.50652 4.42536 5.68774 4.60394C6.03966 4.95061 6.15259 5.03991 6.18673 5.00051C6.19986 4.98738 6.234 4.88233 6.26289 4.76677C6.42309 4.1496 6.40996 3.51403 6.21824 2.80493C6.07117 2.26129 6.04754 2.12735 6.04754 1.74654C6.04754 1.12673 6.16047 0.706527 6.47299 0.165511C6.52552 0.0735905 6.57804 5.43594e-05 6.58855 5.43594e-05C6.59905 5.43594e-05 6.60956 0.0814694 6.60956 0.178642C6.60956 0.396624 6.68835 0.719658 6.79077 0.932388C6.9431 1.24229 7.14794 1.44714 7.9437 2.07482C8.3534 2.39786 8.67381 2.69463 8.96532 3.02554C10.071 4.27566 10.9035 5.90396 11.3894 7.76075C11.6546 8.77187 11.8043 9.75935 11.9173 11.1959C11.954 11.6713 11.912 11.6214 12.2954 11.6477C13.6585 11.7343 15.011 12.2675 15.5389 12.9267C15.6571 13.0737 15.8567 13.4651 15.9722 13.7776C16.0247 13.9247 16.0799 14.0087 16.2165 14.161C16.6944 14.6863 16.8599 14.9095 17.0385 15.2641C17.0936 15.3744 17.1409 15.4742 17.1409 15.482C17.1409 15.4873 16.9439 15.4978 16.7023 15.5004C16.2611 15.5083 16.2611 15.5083 16.2532 15.6002C16.2401 15.7315 16.29 15.8786 16.4187 16.0756C16.5421 16.2673 16.6314 16.3619 16.6892 16.3619C16.7102 16.3619 16.7995 16.2883 16.8888 16.199C17.0332 16.0546 17.1068 15.939 17.2092 15.6921C17.246 15.6081 17.2538 15.9784 17.2197 16.1439C17.1488 16.4748 16.8468 16.9239 16.529 17.1655C16.1035 17.4885 15.6203 17.5805 14.7037 17.52C13.9185 17.4649 13.2461 17.3572 12.8181 17.2154C12.5187 17.1156 12.0617 16.8845 11.849 16.7243C11.6179 16.5483 11.3001 16.2305 11.1793 16.0519C11.069 15.8917 11.0375 15.8786 11.0847 16.0152C11.2975 16.614 11.7938 17.1419 12.4478 17.4596C12.9704 17.7144 13.4037 17.8247 14.0104 17.8588C14.2179 17.8693 14.3912 17.8825 14.3965 17.8877C14.4096 17.9009 14.5015 18.392 14.5514 18.6993C14.7274 19.8181 14.6433 20.9605 14.336 21.7064C14.1811 22.0793 14.2074 22.0688 14.0104 21.8324ZM14.3492 14.7414C14.2415 14.5602 14.2074 14.4604 14.1864 14.2477C14.147 13.8669 14.013 13.6463 13.7425 13.5044C13.5902 13.4257 13.409 13.4152 12.8653 13.4572C12.5686 13.4808 12.5686 13.4808 12.6552 13.5754C12.8627 13.7986 12.868 13.8091 12.889 13.9877C12.9152 14.1873 13.0124 14.3843 13.1411 14.4998C13.3591 14.6889 13.6716 14.7729 13.9211 14.7099C14.0419 14.681 14.0419 14.681 14.2336 14.8255C14.4569 14.9962 14.4884 14.9725 14.3492 14.7414ZM10.9035 11.9681C10.7564 10.4186 10.7276 10.1586 10.654 9.62541C10.4019 7.81327 10.0946 6.84942 9.45906 5.85668C9.19906 5.45224 8.94431 5.12658 8.6134 4.77728C8.37179 4.52253 7.8229 4.01828 7.78875 4.01828C7.76512 4.01828 7.63643 4.42536 7.54451 4.79304C7.36067 5.52577 7.28188 6.16133 7.28451 6.89407C7.28451 7.49286 7.31865 7.80802 7.43683 8.27813C7.55502 8.74035 7.68108 9.0345 7.95684 9.4941C8.3928 10.2216 8.91017 10.8072 10.3389 12.1834C10.8011 12.6273 10.956 12.7638 10.9639 12.7297C10.9692 12.7034 10.9429 12.3594 10.9035 11.9681Z" fill="#CFD4E5"/>
<path d="M13.7399 11.5793C13.5561 11.5216 13.0282 11.4165 12.65 11.364C12.243 11.3062 12.243 11.3062 12.2482 10.7678C12.264 9.02659 12.5765 7.37465 13.2068 5.67281C13.4983 4.89018 13.9211 4.06289 14.386 3.36167C14.8613 2.64732 15.271 2.19035 15.4943 2.12206C15.6991 2.05903 15.8383 2.19823 15.9801 2.60268C16.2822 3.4641 16.3557 4.83502 16.1666 6.12979C15.8908 8.02597 15.2579 9.68842 14.2757 11.083C13.866 11.6634 13.9028 11.6292 13.7399 11.5793Z" fill="#CFD4E5"/>
<path d="M5.37261 3.77926C5.33847 3.7031 5.23079 3.53764 5.12836 3.4142C5.02856 3.29077 4.91038 3.11481 4.86573 3.02026C4.7922 2.86531 4.77142 2.7855 4.75853 2.55338C4.77142 2.24388 4.82897 2.11419 4.97341 1.86732C5.07321 1.70186 5.07321 1.70186 5.09159 1.85419C5.12048 2.08267 5.15463 2.15884 5.33584 2.43197C5.58271 2.79965 5.61948 2.91521 5.60372 3.26976C5.59322 3.54289 5.52493 3.82653 5.45665 3.89481C5.44089 3.91057 5.40675 3.8633 5.37261 3.77926Z" fill="url(#paint0_linear_173_1057)"/>
<defs>
<linearGradient id="paint0_linear_173_1057" x1="5.18269" y1="1.74153" x2="5.18269" y2="3.89782" gradientUnits="userSpaceOnUse">
<stop stop-color="#EB5757"/>
<stop offset="1" stop-color="#F2C94C"/>
</linearGradient>
</defs>
</svg>
